<svg version="1.1" xmlns="http://www.w3.org/2000/svg" xmlns:xlink="http://www.w3.org/1999/xlink" width="79.59288" height="33" viewBox="0,0,79.59288,33"><defs><linearGradient x1="141.15711" y1="178.75" x2="218.84289" y2="178.75" gradientUnits="userSpaceOnUse" id="color-1"><stop offset="0" stop-color="#00ffda"/><stop offset="1" stop-color="#fdff00"/></linearGradient></defs><g transform="translate(-141.15712,-160.75)"><g data-paper-data="{&quot;isPaintingLayer&quot;:true}" fill-rule="nonzero" stroke="none" stroke-linecap="butt" stroke-linejoin="miter" stroke-miterlimit="10" stroke-dasharray="" stroke-dashoffset="0" style="mix-blend-mode: normal"><text transform="translate(145,188.5) scale(0.5,0.5)" font-size="40" xml:space="preserve" fill="#000000" fill-rule="nonzero" stroke="none" stroke-width="1" stroke-linecap="butt" stroke-linejoin="miter" stroke-miterlimit="10" stroke-dasharray="" stroke-dashoffset="0" font-family="Pixel" font-weight="normal" text-anchor="start" style="mix-blend-mode: normal"><tspan x="0" dy="0">by Luk!</tspan></text><text transform="translate(142.5,186) scale(0.5,0.5)" font-size="40" xml:space="preserve" fill="#ffffff" fill-rule="nonzero" stroke="none" stroke-width="1" stroke-linecap="butt" stroke-linejoin="miter" stroke-miterlimit="10" stroke-dasharray="" stroke-dashoffset="0" font-family="Pixel" font-weight="normal" text-anchor="start" style="mix-blend-mode: normal"><tspan x="0" dy="0">by Luk!</tspan></text><path d="M218.42876,175.55779c0.91241,1.0412 0.03258,2.12097 0.03258,2.12097l-0.42485,0.5214c-1.8581,2.28037 -3.51266,4.41073 -5.46741,6.29276l0.17305,0.20448l-1.47438,1.74753c-0.22943,0.27197 -0.54661,0.44023 -0.89701,0.44023c-0.70002,0 -1.2675,-0.67157 -1.2675,-1.5c0,-0.02323 0.00045,-0.04634 0.00133,-0.06931l0.101,-2.98825l0.00075,0.00004l-0.00061,-0.00412c0.10769,-2.79495 0.15412,-5.59349 0.10502,-8.39191c-0.01104,-0.62919 -0.11178,-1.25698 -0.0833,-1.8854c0.01715,-0.37849 0.51506,-0.96285 0.21891,-1.10719c-0.29235,-0.14249 -0.23295,0.69572 -0.34942,1.04358c-4.07714,3.45556 -7.74962,7.33854 -11.56516,11.18176c-0.71492,0.72011 -4.10966,4.16731 -4.78753,4.21953c-1.68211,0.12958 -2.15648,-2.83545 -2.33881,-4.02142c-0.56979,-3.70629 -0.73329,-7.61123 -0.62106,-11.36992c0.00964,-0.323 -0.34637,0.49992 -0.52535,0.74405c-0.27301,0.37238 -0.53857,0.75248 -0.8163,1.11994c-0.56566,0.74844 -1.14393,1.48339 -1.71365,2.22749c-1.61633,2.11103 -3.23046,4.21261 -4.90584,6.25842c-1.42119,1.73483 -2.99721,4.21022 -4.77589,5.46069c-0.74184,0.52153 -1.54793,1.60102 -2.36048,1.25743c-0.84136,-0.35578 -1.01847,-1.77859 -1.27072,-2.79292c-0.6384,-2.56708 0.04377,-6.14694 0.08735,-8.78095c0.01268,-0.76626 0.0122,-1.53295 0.00052,-2.29923c-0.00772,-0.50637 -0.09276,-1.01291 -0.05874,-1.51776c0.01735,-0.25752 0.33484,-0.94619 0.21044,-0.73391c-4.07306,6.95032 -11.21702,14.1342 -18.09481,16.55671c-0.51999,-5.60113 0.9818,-12.10728 2.54526,-17.44388c0.08652,-0.29531 -0.22966,0.58199 -0.42676,0.79005c-0.41102,0.4339 -0.89436,0.76401 -1.31059,1.1909c-1.17494,1.20504 -2.20793,2.59146 -3.29538,3.9065c-2.99937,3.62709 -6.22434,6.5219 -10.05705,8.79311c0,0 -1.13369,0.67082 -1.70053,-0.67082c-0.56684,-1.34164 0.56684,-2.01246 0.56684,-2.01246c4.38786,-2.59233 7.52963,-6.15126 10.97159,-10.21798c0.75746,-0.89495 3.81234,-4.77887 5.14578,-4.68724c0.90937,0.06249 2.00837,0.60245 2.38163,1.58578c0.45337,1.19441 -0.1306,2.61771 -0.29456,3.91264c-0.43647,3.44714 -1.37789,6.92775 -2.03631,10.32932c-0.04419,0.22826 -0.09853,0.47156 -0.16876,0.70978c0.92848,-1.13325 2.12153,-1.92214 3.2474,-2.93012c2.88941,-2.58685 5.63053,-5.1687 8.21138,-8.1808c0.78746,-0.91905 3.73667,-4.67757 4.73212,-4.59058c1.00835,0.08812 1.39345,1.78952 1.81212,2.87868c0.20116,0.52331 0.15999,4.24693 0.15302,4.683c-0.0351,2.19596 0.1394,4.80542 -0.01495,7.09173c0.6757,-0.81438 1.54474,-1.43824 2.23518,-2.24496c0.59467,-0.69482 1.16307,-1.42043 1.7446,-2.13065c2.50209,-3.05468 4.74683,-7.06042 7.53089,-9.71603c1.21724,-1.16108 2.89829,-2.88654 4.3334,-0.25595c1.04576,1.91688 0.51773,7.36251 0.72079,9.67913c0.08383,0.95638 0.18977,1.9102 0.31102,2.86094c0.06594,0.51708 -0.24909,1.9815 0.02207,1.56859c3.77613,-5.74998 9.71495,-10.62273 14.70108,-14.84871c0.86936,-0.48547 1.71544,-1.87858 2.60809,-1.45642c0.99958,0.47273 1.14739,2.18374 1.48642,3.39281c0.76135,2.71524 0.28394,6.75215 0.08202,9.84826c1.18314,-1.9569 3.22251,-3.74839 4.41297,-5.2094l0.42485,-0.5214c0,0 0.87981,-1.07977 1.79222,-0.03856z" fill="url(#color-1)" stroke-width="0.5"/></g></g></svg>